HIERARCHY
ROOT Hips
{
	OFFSET 0.000000 99.672066 0.247052
	CHANNELS 6 Xposition Yposition Zposition Xrotation Yrotation Zrotation
	JOINT Spine
	{
		OFFSET 0.000001 9.923462 -1.227335
		CHANNELS 3 Xrotation Yrotation Zrotation
		JOINT Spine1
		{
			OFFSET -0.000139 11.645439 -1.422341
			CHANNELS 3 Xrotation Yrotation Zrotation
			JOINT Spine2
			{
				OFFSET 0.000091 13.360199 -1.626460
				CHANNELS 3 Xrotation Yrotation Zrotation
				JOINT Neck
				{
					OFFSET 0.000025 15.032501 0.792905
					CHANNELS 3 Xrotation Yrotation Zrotation
					JOINT Head
					{
						OFFSET 0.000002 10.321823 3.142429
						CHANNELS 3 Xrotation Yrotation Zrotation
						JOINT HeadTop_End
						{
							OFFSET 0.000154 18.474670 6.636399
							CHANNELS 3 Xrotation Yrotation Zrotation
							End Site
							{
								OFFSET 0.000000 14.732239 0.000000
							}
						}
						JOINT LeftEye
						{
							OFFSET 2.947915 7.681747 9.120731
							CHANNELS 3 Xrotation Yrotation Zrotation
							End Site
							{
								OFFSET 0.000000 14.732239 0.000000
							}
						}
						JOINT RightEye
						{
							OFFSET -2.944481 7.681747 9.120496
							CHANNELS 3 Xrotation Yrotation Zrotation
							End Site
							{
								OFFSET 0.000000 14.732239 0.000000
							}
						}
					}
				}
				JOINT LeftShoulder
				{
					OFFSET 6.105824 9.110428 0.705551
					CHANNELS 3 Xrotation Yrotation Zrotation
					JOINT LeftArm
					{
						OFFSET 12.655037 -0.265930 -2.600922
						CHANNELS 3 Xrotation Yrotation Zrotation
						JOINT LeftForeArm
						{
							OFFSET 27.404682 0.000031 0.000007
							CHANNELS 3 Xrotation Yrotation Zrotation
							JOINT LeftHand
							{
								OFFSET 27.614464 0.000031 0.000020
								CHANNELS 3 Xrotation Yrotation Zrotation
								JOINT LeftHandMiddle1
								{
									OFFSET 12.775528 0.000015 0.000021
									CHANNELS 3 Xrotation Yrotation Zrotation
									JOINT LeftHandMiddle2
									{
										OFFSET 3.613968 0.000000 0.000002
										CHANNELS 3 Xrotation Yrotation Zrotation
										JOINT LeftHandMiddle3
										{
											OFFSET 3.459763 0.000000 -0.000027
											CHANNELS 3 Xrotation Yrotation Zrotation
											JOINT LeftHandMiddle4
											{
												OFFSET 3.680191 0.000000 0.000033
												CHANNELS 3 Xrotation Yrotation Zrotation
												End Site
												{
													OFFSET 0.000000 3.680191 0.000000
												}
											}
										}
									}
								}
								JOINT LeftHandThumb1
								{
									OFFSET 3.788811 -2.166992 3.003088
									CHANNELS 3 Xrotation Yrotation Zrotation
									JOINT LeftHandThumb2
									{
										OFFSET 3.675446 -2.122009 2.122012
										CHANNELS 3 Xrotation Yrotation Zrotation
										JOINT LeftHandThumb3
										{
											OFFSET 3.394356 -1.959747 1.959793
											CHANNELS 3 Xrotation Yrotation Zrotation
											JOINT LeftHandThumb4
											{
												OFFSET 2.679405 -1.546951 1.546920
												CHANNELS 3 Xrotation Yrotation Zrotation
												End Site
												{
													OFFSET 0.000000 3.459076 0.000000
												}
											}
										}
									}
								}
								JOINT LeftHandIndex1
								{
									OFFSET 12.266617 -0.231659 2.822058
									CHANNELS 3 Xrotation Yrotation Zrotation
									JOINT LeftHandIndex2
									{
										OFFSET 3.891968 0.000000 0.000039
										CHANNELS 3 Xrotation Yrotation Zrotation
										JOINT LeftHandIndex3
										{
											OFFSET 3.415161 0.000000 -0.000009
											CHANNELS 3 Xrotation Yrotation Zrotation
											JOINT LeftHandIndex4
											{
												OFFSET 3.077988 0.000000 -0.000009
												CHANNELS 3 Xrotation Yrotation Zrotation
												End Site
												{
													OFFSET 0.000000 3.077988 0.000000
												}
											}
										}
									}
								}
								JOINT LeftHandRing1
								{
									OFFSET 12.147011 0.009903 -2.216630
									CHANNELS 3 Xrotation Yrotation Zrotation
									JOINT LeftHandRing2
									{
										OFFSET 3.601189 0.000000 0.000035
										CHANNELS 3 Xrotation Yrotation Zrotation
										JOINT LeftHandRing3
										{
											OFFSET 3.307312 0.000000 -0.000021
											CHANNELS 3 Xrotation Yrotation Zrotation
											JOINT LeftHandRing4
											{
												OFFSET 3.660118 0.000000 0.000000
												CHANNELS 3 Xrotation Yrotation Zrotation
												End Site
												{
													OFFSET 0.000000 3.660110 0.000000
												}
											}
										}
									}
								}
								JOINT LeftHandPinky1
								{
									OFFSET 10.908195 -0.226364 -4.725818
									CHANNELS 3 Xrotation Yrotation Zrotation
									JOINT LeftHandPinky2
									{
										OFFSET 4.136658 0.000000 0.000027
										CHANNELS 3 Xrotation Yrotation Zrotation
										JOINT LeftHandPinky3
										{
											OFFSET 2.594833 0.000000 -0.000035
											CHANNELS 3 Xrotation Yrotation Zrotation
											JOINT LeftHandPinky4
											{
												OFFSET 2.923866 0.000000 0.000019
												CHANNELS 3 Xrotation Yrotation Zrotation
												End Site
												{
													OFFSET 0.000000 2.923874 0.000000
												}
											}
										}
									}
								}
							}
						}
					}
				}
				JOINT RightShoulder
				{
					OFFSET -6.105696 9.110519 0.705564
					CHANNELS 3 Xrotation Yrotation Zrotation
					JOINT RightArm
					{
						OFFSET -12.655039 -0.266022 -2.600896
						CHANNELS 3 Xrotation Yrotation Zrotation
						JOINT RightForeArm
						{
							OFFSET -27.404684 0.000031 0.000005
							CHANNELS 3 Xrotation Yrotation Zrotation
							JOINT RightHand
							{
								OFFSET -27.614464 0.000015 0.000018
								CHANNELS 3 Xrotation Yrotation Zrotation
								JOINT RightHandMiddle1
								{
									OFFSET -12.775528 0.000015 0.000018
									CHANNELS 3 Xrotation Yrotation Zrotation
									JOINT RightHandMiddle2
									{
										OFFSET -3.613968 0.000000 0.000003
										CHANNELS 3 Xrotation Yrotation Zrotation
										JOINT RightHandMiddle3
										{
											OFFSET -3.459763 0.000000 -0.000026
											CHANNELS 3 Xrotation Yrotation Zrotation
											JOINT RightHandMiddle4
											{
												OFFSET -3.680191 0.000000 0.000032
												CHANNELS 3 Xrotation Yrotation Zrotation
												End Site
												{
													OFFSET 0.000000 3.680191 0.000000
												}
											}
										}
									}
								}
								JOINT RightHandThumb1
								{
									OFFSET -3.788811 -2.166992 3.003087
									CHANNELS 3 Xrotation Yrotation Zrotation
									JOINT RightHandThumb2
									{
										OFFSET -3.675446 -2.122009 2.122012
										CHANNELS 3 Xrotation Yrotation Zrotation
										JOINT RightHandThumb3
										{
											OFFSET -3.394356 -1.959747 1.959793
											CHANNELS 3 Xrotation Yrotation Zrotation
											JOINT RightHandThumb4
											{
												OFFSET -2.679405 -1.546951 1.546920
												CHANNELS 3 Xrotation Yrotation Zrotation
												End Site
												{
													OFFSET 0.000000 3.459076 0.000000
												}
											}
										}
									}
								}
								JOINT RightHandIndex1
								{
									OFFSET -12.266617 -0.231674 2.822056
									CHANNELS 3 Xrotation Yrotation Zrotation
									JOINT RightHandIndex2
									{
										OFFSET -3.891968 0.000000 0.000037
										CHANNELS 3 Xrotation Yrotation Zrotation
										JOINT RightHandIndex3
										{
											OFFSET -3.415161 0.000000 -0.000009
											CHANNELS 3 Xrotation Yrotation Zrotation
											JOINT RightHandIndex4
											{
												OFFSET -3.077988 0.000000 -0.000009
												CHANNELS 3 Xrotation Yrotation Zrotation
												End Site
												{
													OFFSET 0.000000 3.077988 0.000000
												}
											}
										}
									}
								}
								JOINT RightHandRing1
								{
									OFFSET -12.147003 0.009903 -2.216631
									CHANNELS 3 Xrotation Yrotation Zrotation
									JOINT RightHandRing2
									{
										OFFSET -3.601196 0.000000 0.000034
										CHANNELS 3 Xrotation Yrotation Zrotation
										JOINT RightHandRing3
										{
											OFFSET -3.307312 0.000000 -0.000021
											CHANNELS 3 Xrotation Yrotation Zrotation
											JOINT RightHandRing4
											{
												OFFSET -3.660118 0.000000 0.000001
												CHANNELS 3 Xrotation Yrotation Zrotation
												End Site
												{
													OFFSET 0.000000 3.660110 0.000000
												}
											}
										}
									}
								}
								JOINT RightHandPinky1
								{
									OFFSET -10.908195 -0.226364 -4.725820
									CHANNELS 3 Xrotation Yrotation Zrotation
									JOINT RightHandPinky2
									{
										OFFSET -4.136650 0.000000 0.000026
										CHANNELS 3 Xrotation Yrotation Zrotation
										JOINT RightHandPinky3
										{
											OFFSET -2.594841 0.000000 -0.000037
											CHANNELS 3 Xrotation Yrotation Zrotation
											JOINT RightHandPinky4
											{
												OFFSET -2.923866 0.000000 0.000019
												CHANNELS 3 Xrotation Yrotation Zrotation
												End Site
												{
													OFFSET 0.000000 2.923874 0.000000
												}
											}
										}
									}
								}
							}
						}
					}
				}
			}
		}
	}
	JOINT RightUpLeg
	{
		OFFSET -9.124454 -6.656395 -0.055378
		CHANNELS 3 Xrotation Yrotation Zrotation
		JOINT RightLeg
		{
			OFFSET -0.244680 -40.595436 -0.514528
			CHANNELS 3 Xrotation Yrotation Zrotation
			JOINT RightFoot
			{
				OFFSET 0.244669 -42.047871 -2.060231
				CHANNELS 3 Xrotation Yrotation Zrotation
				JOINT RightToeBase
				{
					OFFSET -0.373360 -10.492195 12.640663
					CHANNELS 3 Xrotation Yrotation Zrotation
					JOINT RightToe_End
					{
						OFFSET 0.000000 0.000000 9.992521
						CHANNELS 3 Xrotation Yrotation Zrotation
						End Site
						{
							OFFSET 0.000000 9.992521 0.000000
						}
					}
				}
			}
		}
	}
	JOINT LeftUpLeg
	{
		OFFSET 9.124453 -6.656395 -0.055378
		CHANNELS 3 Xrotation Yrotation Zrotation
		JOINT LeftLeg
		{
			OFFSET 0.244680 -40.595406 -0.517041
			CHANNELS 3 Xrotation Yrotation Zrotation
			JOINT LeftFoot
			{
				OFFSET -0.244669 -42.047997 -2.057641
				CHANNELS 3 Xrotation Yrotation Zrotation
				JOINT LeftToeBase
				{
					OFFSET 0.373360 -10.492195 12.640664
					CHANNELS 3 Xrotation Yrotation Zrotation
					JOINT LeftToe_End
					{
						OFFSET 0.000000 0.000001 9.992521
						CHANNELS 3 Xrotation Yrotation Zrotation
						End Site
						{
							OFFSET 0.000000 9.992521 0.000000
						}
					}
				}
			}
		}
	}
}
MOTION
Frames: 4
Frame Time: 0.033333
5.287304 91.531364 -24.414459 -194.809248 -120.563699 169.752740 4.015093 16.090039 9.820120 0.952346 2.176893 -8.904799 1.254348 2.099887 -8.891245 -0.354402 -8.236313 -7.031440 9.856170 -50.944492 12.185174 -0.000000 0.000001 0.000000 -0.000000 0.000001 0.000000 -0.000000 0.000001 0.000000 -0.077941 3.573744 1.042880 14.558688 -6.301697 -32.499744 -0.000338 -95.071356 -0.000367 37.572488 19.740104 49.565395 0.383325 -2.268993 19.175650 0.007762 0.327466 -2.715703 0.053288 0.856547 -7.119432 0.000001 -0.000001 0.000003 -6.161269 13.890259 24.111630 4.533749 15.167009 1.287031 -0.192123 5.774090 2.952325 -0.000001 0.000002 -0.000003 0.715631 -3.060812 26.313519 -0.000001 0.000008 -0.000026 0.008185 0.336252 -2.788717 -0.000000 -0.000000 0.000002 0.114511 -1.252792 10.444918 0.055966 0.877707 -7.296325 0.144185 1.404196 -11.724816 -0.000001 -0.000001 -0.000000 -0.253039 3.623497 4.019060 0.126261 -2.710211 -11.726941 0.241622 1.811106 -15.196561 0.000001 -0.000003 -0.000001 0.802831 2.875290 -6.701568 -40.963902 -11.459666 17.322838 0.000012 40.022422 -0.000003 -7.566079 -0.311773 -56.310610 0.224450 1.755391 -14.571418 0.039252 -0.739204 6.080030 0.256243 -1.873400 15.575673 -0.000001 0.000002 0.000000 -1.484964 2.472871 -24.138747 5.071041 -13.380630 -0.559917 -0.346611 -10.447681 -3.181952 0.000000 -0.000000 -0.000000 0.573248 2.768726 -23.391016 0.003135 -0.209009 1.716026 0.142153 -1.401301 11.584583 -0.000001 0.000000 -0.000000 0.014967 0.456785 -3.752541 0.153000 -1.453236 12.020426 0.434772 -2.423957 20.334749 -0.000000 -0.000002 0.000002 0.025846 -0.599987 4.931725 0.298025 -2.017259 16.806889 0.607130 -2.845672 24.082755 0.000000 0.000000 -0.000002 -11.134519 -3.375940 -19.545546 44.339874 -10.315277 3.568773 -19.359664 -9.136740 15.980165 -1.236647 0.000023 0.000001 0.000000 0.000000 -0.000000 -3.555906 -3.135148 15.705692 26.612720 -9.719447 3.760442 -21.464862 -8.639546 -19.584639 -1.457758 0.000003 0.000001 -0.000000 0.000001 -0.000000 
3.238555 90.824120 -26.237253 -194.575888 -122.381868 168.295014 3.806962 14.744956 9.067716 0.833536 1.998493 -8.624567 1.100269 1.928501 -8.613389 0.132964 -8.309897 -6.276069 13.158837 -50.392398 16.139380 0.000000 -0.000000 -0.000000 0.000000 -0.000000 -0.000000 0.000000 -0.000000 -0.000000 -0.019279 3.933220 -0.688118 7.690270 -0.316007 -36.544217 0.000041 -103.115277 0.000075 35.019712 23.540629 41.876911 0.559303 -2.722368 23.215441 0.005588 0.277970 -2.305114 0.044214 0.780436 -6.483823 0.000001 -0.000000 0.000000 -5.815311 12.878187 23.874013 4.491521 14.631722 1.248983 -0.215942 5.507064 2.926817 0.000000 -0.000000 -0.000001 0.911226 -3.427445 29.768792 0.000007 0.000018 -0.000020 0.004255 0.242551 -2.011048 -0.000000 -0.000000 0.000000 0.243109 -1.816598 15.243814 0.037831 0.722088 -5.997437 0.141496 1.391188 -11.614526 0.000001 -0.000000 0.000003 -0.564451 2.927738 9.465015 0.090580 -2.894383 -10.173393 0.240803 1.808090 -15.170689 0.000001 -0.000000 0.000001 0.734778 2.285487 -4.522222 -40.527576 -14.236378 18.658849 0.000002 45.106088 -0.000015 -5.893398 -0.760981 -54.759092 0.281931 1.963188 -16.343193 0.021200 -0.543628 4.467394 0.222454 -1.747731 14.506318 0.000001 0.000000 -0.000000 -1.425175 2.655683 -24.111736 5.062423 -13.284073 -0.553419 -0.355959 -10.329935 -3.170675 -0.000000 0.000000 -0.000000 0.659643 2.960233 -25.119663 0.000001 -0.000004 0.000058 0.122188 -1.300059 10.736939 -0.000001 0.000000 -0.000000 0.033234 0.680303 -5.593806 0.123436 -1.306616 10.791738 0.372869 -2.250024 18.816784 -0.000001 -0.000002 0.000001 0.009694 -0.367820 3.020954 0.267291 -1.912582 15.910176 0.516552 -2.633918 22.188018 -0.000003 0.000001 -0.000000 -10.549053 -4.400579 -16.776090 47.099328 -10.625179 5.103395 -22.428075 -9.883130 14.300877 -2.678290 0.000004 -0.000001 -0.000000 0.000000 -0.000000 -6.558129 3.249408 19.877278 29.766251 -10.077573 4.985403 -19.861548 -4.285082 -21.101642 -1.110409 0.000010 -0.000001 -0.000000 0.000001 -0.000000 
1.435167 90.033875 -27.823189 -196.192225 -123.423868 165.433356 4.970362 13.066072 7.631388 0.464901 1.801662 -7.689658 0.676101 1.730057 -7.691926 0.520453 -7.968796 -5.566801 12.586737 -48.031157 17.629309 -0.000000 -0.000000 0.000000 -0.000000 -0.000000 0.000000 -0.000000 -0.000000 0.000000 0.230340 2.838097 -2.672479 3.685535 2.589917 -41.122762 0.000048 -107.511706 0.000060 30.685161 24.421517 36.819187 0.645764 -2.915461 24.973190 0.003164 0.209284 -1.735252 0.031444 0.658437 -5.466994 -0.000004 0.000001 -0.000002 -5.554865 12.104261 23.697357 4.459066 14.222878 1.219726 -0.234211 5.303104 2.907248 0.000000 -0.000002 0.000003 0.921857 -3.445914 29.946032 0.000000 -0.000001 -0.000029 0.000817 0.107373 -0.890227 -0.000001 -0.000001 0.000001 0.375397 -2.246087 18.974559 0.018984 0.511789 -4.246700 0.130104 1.334563 -11.135467 -0.000002 -0.000001 -0.000001 -0.804262 2.219417 14.801548 0.047988 -3.161403 -7.933984 0.228964 1.763887 -14.790995 0.000003 0.000001 0.000002 0.681493 1.594887 -1.371296 -42.372684 -15.978411 20.122094 0.000003 52.791198 0.000001 -3.041886 -0.460540 -53.222890 0.314414 2.070690 -17.266216 0.016951 -0.486051 3.993375 0.193558 -1.632000 13.526316 0.000001 -0.000000 -0.000000 -1.302588 3.031397 -24.056777 5.044721 -13.085660 -0.539986 -0.375171 -10.088023 -3.147386 -0.000001 -0.000001 -0.000000 0.651121 2.942011 -24.954211 -0.000000 -0.000007 0.000035 0.095073 -1.148004 9.468436 -0.000000 0.000001 -0.000000 0.065792 0.955986 -7.873347 0.109922 -1.233710 10.182908 0.335538 -2.137385 17.841257 -0.000001 0.000003 -0.000001 0.000139 0.044619 -0.366293 0.245492 -1.834416 15.243394 0.471507 -2.520729 21.186040 -0.000003 0.000000 -0.000000 -9.501717 -3.656416 -13.967818 50.422113 -10.702400 6.634569 -24.404935 -10.816996 13.060884 -3.898827 0.000025 0.000002 -0.000000 0.000000 0.000000 -9.945502 9.767241 23.908184 33.616965 -10.281323 7.362155 -19.001453 -2.159684 -22.072651 -0.373760 0.000009 -0.000005 0.000000 0.000002 -0.000000 
-0.011364 89.231232 -29.163902 -199.676810 -124.127186 161.212764 7.318985 10.973939 6.230233 0.567770 1.542511 -6.361278 0.716036 1.455800 -6.368423 -0.238268 -7.163325 -4.882577 8.507739 -43.436762 16.329963 -0.000000 0.000000 -0.000000 -0.000000 0.000000 -0.000000 -0.000000 0.000000 -0.000000 0.592722 0.239838 -5.113809 -0.238039 0.760808 -42.691650 0.000078 -109.613799 0.000094 27.524389 24.338141 35.099990 0.609773 -2.837012 24.255988 0.001198 0.127759 -1.059000 0.018074 0.499385 -4.143667 0.000002 0.000000 -0.000000 -5.479956 11.879768 23.646911 4.449647 14.104375 1.211184 -0.239511 5.244013 2.901581 0.000004 -0.000001 -0.000000 0.772770 -3.173577 27.364161 0.000009 0.000010 -0.000029 0.000217 -0.056699 0.469969 0.000002 -0.000001 0.000001 0.440158 -2.426098 20.562933 0.006771 0.305900 -2.536764 0.105264 1.201547 -10.013153 -0.000000 -0.000001 0.000002 -0.923622 1.751241 18.246307 0.010336 -3.487368 -5.215765 0.205636 1.673112 -14.013334 0.000002 -0.000003 0.000001 0.619330 0.640169 1.145042 -45.210211 -16.735046 22.378626 0.000004 60.842567 -0.000004 -0.489621 0.153885 -51.685322 0.346844 2.172202 -18.142202 0.013607 -0.435706 3.579207 0.166141 -1.513534 12.527348 0.000000 0.000003 0.000001 -1.188675 3.381431 -24.006290 5.028203 -12.900856 -0.527429 -0.393198 -9.862723 -3.125728 -0.000001 0.000001 -0.000000 0.601557 2.833178 -23.970182 0.000003 -0.000009 0.000058 0.069469 -0.982275 8.091227 -0.000000 -0.000003 -0.000001 0.129656 1.338896 -11.061768 0.094246 -1.142985 9.426593 0.310911 -2.059394 17.169016 0.000000 0.000000 0.000003 0.031399 0.661273 -5.436905 0.215841 -1.721998 14.288108 0.451944 -2.469742 20.736837 0.000001 0.000000 -0.000000 -7.507700 -2.828140 -11.450092 52.969319 -10.689390 7.841067 -26.419442 -11.391938 11.880032 -4.319836 0.000002 0.000001 0.000000 -0.000000 -0.000000 -11.990751 14.246517 27.814193 36.644327 -10.019287 9.452849 -18.929410 -2.310578 -22.714597 -0.287253 -0.000000 -0.000003 -0.000000 -0.000003 -0.000000 
